<?xml version="1.0" encoding="UTF-8"?>
<!DOCTYPE svg PUBLIC "-//W3C//DTD SVG 1.1//EN" "http://www.w3.org/Graphics/SVG/1.1/DTD/svg11.dtd">
<svg xmlns="http://www.w3.org/2000/svg" version="1.1" width="155px" height="135px" style="shape-rendering:geometricPrecision; text-rendering:geometricPrecision; image-rendering:optimizeQuality; fill-rule:evenodd; clip-rule:evenodd" xmlns:xlink="http://www.w3.org/1999/xlink">
<g><path style="opacity:0.879" fill="#0067cf" d="M 154.5,16.5 C 154.5,17.5 154.5,18.5 154.5,19.5C 151.734,24.117 149.734,29.117 148.5,34.5C 107.165,34.6667 65.832,34.5 24.5,34C 67.6301,27.2916 110.963,21.4583 154.5,16.5 Z"/></g>
<g><path style="opacity:0.953" fill="#0067cf" d="M 40.5,37.5 C 48.5146,36.708 56.1813,37.8747 63.5,41C 66.2898,45.0641 67.1231,49.5641 66,54.5C 63.5297,61.578 60.863,68.578 58,75.5C 48.911,76.3192 39.7444,76.8192 30.5,77C 27.766,81.6348 25.4327,86.4681 23.5,91.5C 25.0347,95.0744 27.2013,95.4077 30,92.5C 31.6441,88.5633 33.4774,84.7299 35.5,81C 48.8458,80.1673 62.1792,80.334 75.5,81.5C 72.8158,85.4342 72.1491,89.6009 73.5,94C 79.5678,93.9135 82.0678,90.7468 81,84.5C 77.1296,80.0533 72.7962,76.0533 68,72.5C 63.7462,57.4969 68.9129,46.6635 83.5,40C 92.4151,37.1617 101.415,36.8284 110.5,39C 114.88,41.9246 117.047,46.0912 117,51.5C 118.704,47.2594 120.538,43.0928 122.5,39C 130.167,38.3333 137.833,38.3333 145.5,39C 135.704,61.4268 126.038,83.9268 116.5,106.5C 108.833,107.833 101.167,107.833 93.5,106.5C 94.5481,104.544 95.0481,102.544 95,100.5C 91.4681,103.85 87.3014,106.016 82.5,107C 75.1667,107.667 67.8333,107.667 60.5,107C 57.4522,106.394 54.9522,104.894 53,102.5C 51.3377,98.5537 51.0044,94.5537 52,90.5C 41.914,106.248 27.7473,111.414 9.5,106C 7.37623,104.878 5.5429,103.378 4,101.5C 3.33333,97.5 3.33333,93.5 4,89.5C 9.09046,75.8872 14.7571,62.5539 21,49.5C 26.2533,43.2985 32.7533,39.2985 40.5,37.5 Z M 91.5,50.5 C 92.8333,50.5 94.1667,50.5 95.5,50.5C 95.8176,54.6918 94.8176,58.5252 92.5,62C 98.8246,62.4995 105.158,62.6662 111.5,62.5C 109.5,68.9956 107,75.329 104,81.5C 101.991,72.822 96.9906,66.4887 89,62.5C 85.8685,57.7386 86.7018,53.7386 91.5,50.5 Z M 41.5,51.5 C 42.8333,51.5 44.1667,51.5 45.5,51.5C 45.3288,55.8525 43.9954,59.8525 41.5,63.5C 39.1667,64.8333 36.8333,64.8333 34.5,63.5C 36.3554,59.1085 38.6887,55.1085 41.5,51.5 Z"/></g>
<g><path style="opacity:0.794" fill="#0067cf" d="M 121.5,97.5 C 123.833,97.5 126.167,97.5 128.5,97.5C 127.124,100.658 126.458,103.991 126.5,107.5C 125.5,107.5 124.5,107.5 123.5,107.5C 123.542,103.991 122.876,100.658 121.5,97.5 Z"/></g>
<g><path style="opacity:0.773" fill="#0067cf" d="M 129.5,97.5 C 130.833,97.5 132.167,97.5 133.5,97.5C 133.329,100.797 133.995,101.131 135.5,98.5C 136.689,97.5713 138.022,97.238 139.5,97.5C 139.5,100.833 139.5,104.167 139.5,107.5C 137.876,107.64 136.71,106.973 136,105.5C 134.246,107.25 132.079,107.917 129.5,107.5C 129.5,104.167 129.5,100.833 129.5,97.5 Z"/></g>
</svg>
